<mxfile host="Electron" agent="Mozilla/5.0 (Windows NT 10.0; Win64; x64) AppleWebKit/537.36 (KHTML, like Gecko) draw.io/26.2.2 Chrome/134.0.6998.178 Electron/35.1.2 Safari/537.36" version="26.2.2">
  <diagram id="WUxzfDFSMqVaj2RLjJZc" name="第 1 页">
    <mxGraphModel dx="891" dy="825" grid="1" gridSize="10" guides="0" tooltips="1" connect="1" arrows="1" fold="1" page="1" pageScale="1" pageWidth="827" pageHeight="1169" background="#F4F1DE" math="0" shadow="0">
      <root>
        <mxCell id="0" />
        <mxCell id="1" parent="0" />
        <mxCell id="C5pTyBcPjl7wKMJr9xtk-18" style="rounded=0;orthogonalLoop=1;jettySize=auto;html=1;exitX=0;exitY=0.5;exitDx=0;exitDy=0;entryX=1;entryY=0.5;entryDx=0;entryDy=0;" edge="1" parent="1" source="C5pTyBcPjl7wKMJr9xtk-3" target="C5pTyBcPjl7wKMJr9xtk-9">
          <mxGeometry relative="1" as="geometry" />
        </mxCell>
        <mxCell id="C5pTyBcPjl7wKMJr9xtk-19" style="rounded=0;orthogonalLoop=1;jettySize=auto;html=1;exitX=1;exitY=0.5;exitDx=0;exitDy=0;entryX=0;entryY=0.5;entryDx=0;entryDy=0;" edge="1" parent="1" source="C5pTyBcPjl7wKMJr9xtk-3" target="C5pTyBcPjl7wKMJr9xtk-5">
          <mxGeometry relative="1" as="geometry" />
        </mxCell>
        <mxCell id="C5pTyBcPjl7wKMJr9xtk-3" value="" style="ellipse;whiteSpace=wrap;html=1;aspect=fixed;fillColor=#331A00;" vertex="1" parent="1">
          <mxGeometry x="280" y="110" width="20" height="20" as="geometry" />
        </mxCell>
        <mxCell id="C5pTyBcPjl7wKMJr9xtk-4" value="150-199" style="text;html=1;align=center;verticalAlign=middle;whiteSpace=wrap;rounded=0;" vertex="1" parent="1">
          <mxGeometry x="300" y="90" width="60" height="30" as="geometry" />
        </mxCell>
        <mxCell id="C5pTyBcPjl7wKMJr9xtk-20" style="rounded=0;orthogonalLoop=1;jettySize=auto;html=1;exitX=0;exitY=1;exitDx=0;exitDy=0;entryX=1;entryY=0;entryDx=0;entryDy=0;" edge="1" parent="1" source="C5pTyBcPjl7wKMJr9xtk-5" target="C5pTyBcPjl7wKMJr9xtk-11">
          <mxGeometry relative="1" as="geometry" />
        </mxCell>
        <mxCell id="C5pTyBcPjl7wKMJr9xtk-5" value="" style="ellipse;whiteSpace=wrap;html=1;aspect=fixed;fillColor=#331A00;" vertex="1" parent="1">
          <mxGeometry x="360" y="176" width="20" height="20" as="geometry" />
        </mxCell>
        <mxCell id="C5pTyBcPjl7wKMJr9xtk-6" value="300-349" style="text;html=1;align=center;verticalAlign=middle;whiteSpace=wrap;rounded=0;" vertex="1" parent="1">
          <mxGeometry x="380" y="170" width="60" height="30" as="geometry" />
        </mxCell>
        <mxCell id="C5pTyBcPjl7wKMJr9xtk-9" value="" style="ellipse;whiteSpace=wrap;html=1;aspect=fixed;fillColor=#FF0000;" vertex="1" parent="1">
          <mxGeometry x="190" y="176" width="20" height="20" as="geometry" />
        </mxCell>
        <mxCell id="C5pTyBcPjl7wKMJr9xtk-10" value="100-149" style="text;html=1;align=center;verticalAlign=middle;whiteSpace=wrap;rounded=0;" vertex="1" parent="1">
          <mxGeometry x="110" y="170" width="60" height="30" as="geometry" />
        </mxCell>
        <mxCell id="C5pTyBcPjl7wKMJr9xtk-11" value="" style="ellipse;whiteSpace=wrap;html=1;aspect=fixed;fillColor=#FF0000;" vertex="1" parent="1">
          <mxGeometry x="310" y="236" width="20" height="20" as="geometry" />
        </mxCell>
        <mxCell id="C5pTyBcPjl7wKMJr9xtk-12" value="200-299" style="text;html=1;align=center;verticalAlign=middle;whiteSpace=wrap;rounded=0;" vertex="1" parent="1">
          <mxGeometry x="240" y="240" width="60" height="30" as="geometry" />
        </mxCell>
        <mxCell id="C5pTyBcPjl7wKMJr9xtk-21" value="1、初始化红黑树" style="text;html=1;align=center;verticalAlign=middle;whiteSpace=wrap;rounded=0;fontSize=16;fontStyle=1" vertex="1" parent="1">
          <mxGeometry x="110" y="70" width="130" height="30" as="geometry" />
        </mxCell>
        <mxCell id="C5pTyBcPjl7wKMJr9xtk-22" style="rounded=0;orthogonalLoop=1;jettySize=auto;html=1;exitX=0;exitY=0.5;exitDx=0;exitDy=0;entryX=1;entryY=0.5;entryDx=0;entryDy=0;" edge="1" parent="1" source="C5pTyBcPjl7wKMJr9xtk-24" target="C5pTyBcPjl7wKMJr9xtk-29">
          <mxGeometry relative="1" as="geometry" />
        </mxCell>
        <mxCell id="C5pTyBcPjl7wKMJr9xtk-23" style="rounded=0;orthogonalLoop=1;jettySize=auto;html=1;exitX=1;exitY=0.5;exitDx=0;exitDy=0;entryX=0;entryY=0.5;entryDx=0;entryDy=0;" edge="1" parent="1" source="C5pTyBcPjl7wKMJr9xtk-24" target="C5pTyBcPjl7wKMJr9xtk-27">
          <mxGeometry relative="1" as="geometry" />
        </mxCell>
        <mxCell id="C5pTyBcPjl7wKMJr9xtk-24" value="" style="ellipse;whiteSpace=wrap;html=1;aspect=fixed;fillColor=#331A00;" vertex="1" parent="1">
          <mxGeometry x="290" y="389" width="20" height="20" as="geometry" />
        </mxCell>
        <mxCell id="C5pTyBcPjl7wKMJr9xtk-25" value="150-199" style="text;html=1;align=center;verticalAlign=middle;whiteSpace=wrap;rounded=0;" vertex="1" parent="1">
          <mxGeometry x="310" y="369" width="60" height="30" as="geometry" />
        </mxCell>
        <mxCell id="C5pTyBcPjl7wKMJr9xtk-26" style="rounded=0;orthogonalLoop=1;jettySize=auto;html=1;exitX=0;exitY=1;exitDx=0;exitDy=0;entryX=1;entryY=0;entryDx=0;entryDy=0;" edge="1" parent="1" source="C5pTyBcPjl7wKMJr9xtk-27" target="C5pTyBcPjl7wKMJr9xtk-31">
          <mxGeometry relative="1" as="geometry" />
        </mxCell>
        <mxCell id="C5pTyBcPjl7wKMJr9xtk-27" value="" style="ellipse;whiteSpace=wrap;html=1;aspect=fixed;fillColor=#331A00;" vertex="1" parent="1">
          <mxGeometry x="370" y="455" width="20" height="20" as="geometry" />
        </mxCell>
        <mxCell id="C5pTyBcPjl7wKMJr9xtk-28" value="300-349" style="text;html=1;align=center;verticalAlign=middle;whiteSpace=wrap;rounded=0;" vertex="1" parent="1">
          <mxGeometry x="390" y="449" width="60" height="30" as="geometry" />
        </mxCell>
        <mxCell id="C5pTyBcPjl7wKMJr9xtk-37" style="rounded=0;orthogonalLoop=1;jettySize=auto;html=1;exitX=0;exitY=1;exitDx=0;exitDy=0;entryX=1;entryY=0;entryDx=0;entryDy=0;" edge="1" parent="1" source="C5pTyBcPjl7wKMJr9xtk-29" target="C5pTyBcPjl7wKMJr9xtk-34">
          <mxGeometry relative="1" as="geometry" />
        </mxCell>
        <mxCell id="C5pTyBcPjl7wKMJr9xtk-29" value="" style="ellipse;whiteSpace=wrap;html=1;aspect=fixed;fillColor=#660000;" vertex="1" parent="1">
          <mxGeometry x="200" y="455" width="20" height="20" as="geometry" />
        </mxCell>
        <mxCell id="C5pTyBcPjl7wKMJr9xtk-30" value="100-149" style="text;html=1;align=center;verticalAlign=middle;whiteSpace=wrap;rounded=0;" vertex="1" parent="1">
          <mxGeometry x="120" y="449" width="60" height="30" as="geometry" />
        </mxCell>
        <mxCell id="C5pTyBcPjl7wKMJr9xtk-31" value="" style="ellipse;whiteSpace=wrap;html=1;aspect=fixed;fillColor=#FF0000;" vertex="1" parent="1">
          <mxGeometry x="320" y="515" width="20" height="20" as="geometry" />
        </mxCell>
        <mxCell id="C5pTyBcPjl7wKMJr9xtk-32" value="200-299" style="text;html=1;align=center;verticalAlign=middle;whiteSpace=wrap;rounded=0;" vertex="1" parent="1">
          <mxGeometry x="250" y="519" width="60" height="30" as="geometry" />
        </mxCell>
        <mxCell id="C5pTyBcPjl7wKMJr9xtk-33" value="场景1：插入头部段(序列号1-120)" style="text;html=1;align=center;verticalAlign=middle;whiteSpace=wrap;rounded=0;fontSize=16;fontStyle=1" vertex="1" parent="1">
          <mxGeometry x="120" y="340" width="140" height="39" as="geometry" />
        </mxCell>
        <mxCell id="C5pTyBcPjl7wKMJr9xtk-34" value="" style="ellipse;whiteSpace=wrap;html=1;aspect=fixed;fillColor=#FF0000;" vertex="1" parent="1">
          <mxGeometry x="147" y="515" width="20" height="20" as="geometry" />
        </mxCell>
        <mxCell id="C5pTyBcPjl7wKMJr9xtk-35" value="新插入的段&lt;div&gt;1-120&lt;/div&gt;" style="text;html=1;align=center;verticalAlign=middle;whiteSpace=wrap;rounded=0;fontStyle=1;fillColor=#1ba1e2;strokeColor=#006EAF;fontColor=#ffffff;" vertex="1" parent="1">
          <mxGeometry x="69" y="513" width="70" height="30" as="geometry" />
        </mxCell>
        <mxCell id="C5pTyBcPjl7wKMJr9xtk-38" value="新段1-120是头部段，只需要检查与&lt;div&gt;100-149段可能的向前重叠，100-120之间是重叠的部分&lt;/div&gt;" style="text;html=1;align=center;verticalAlign=middle;whiteSpace=wrap;rounded=0;fontSize=14;" vertex="1" parent="1">
          <mxGeometry x="148" y="562" width="230" height="58" as="geometry" />
        </mxCell>
        <mxCell id="C5pTyBcPjl7wKMJr9xtk-39" style="rounded=0;orthogonalLoop=1;jettySize=auto;html=1;exitX=0;exitY=0.5;exitDx=0;exitDy=0;entryX=1;entryY=0.5;entryDx=0;entryDy=0;" edge="1" parent="1" source="C5pTyBcPjl7wKMJr9xtk-41" target="C5pTyBcPjl7wKMJr9xtk-47">
          <mxGeometry relative="1" as="geometry" />
        </mxCell>
        <mxCell id="C5pTyBcPjl7wKMJr9xtk-40" style="rounded=0;orthogonalLoop=1;jettySize=auto;html=1;exitX=1;exitY=0.5;exitDx=0;exitDy=0;entryX=0;entryY=0.5;entryDx=0;entryDy=0;" edge="1" parent="1" source="C5pTyBcPjl7wKMJr9xtk-41" target="C5pTyBcPjl7wKMJr9xtk-44">
          <mxGeometry relative="1" as="geometry" />
        </mxCell>
        <mxCell id="C5pTyBcPjl7wKMJr9xtk-41" value="" style="ellipse;whiteSpace=wrap;html=1;aspect=fixed;fillColor=#331A00;" vertex="1" parent="1">
          <mxGeometry x="290" y="743" width="20" height="20" as="geometry" />
        </mxCell>
        <mxCell id="C5pTyBcPjl7wKMJr9xtk-42" value="150-199" style="text;html=1;align=center;verticalAlign=middle;whiteSpace=wrap;rounded=0;" vertex="1" parent="1">
          <mxGeometry x="310" y="723" width="60" height="30" as="geometry" />
        </mxCell>
        <mxCell id="C5pTyBcPjl7wKMJr9xtk-43" style="rounded=0;orthogonalLoop=1;jettySize=auto;html=1;exitX=0;exitY=1;exitDx=0;exitDy=0;entryX=1;entryY=0;entryDx=0;entryDy=0;" edge="1" parent="1" source="C5pTyBcPjl7wKMJr9xtk-44" target="C5pTyBcPjl7wKMJr9xtk-49">
          <mxGeometry relative="1" as="geometry" />
        </mxCell>
        <mxCell id="C5pTyBcPjl7wKMJr9xtk-56" style="rounded=0;orthogonalLoop=1;jettySize=auto;html=1;exitX=1;exitY=1;exitDx=0;exitDy=0;entryX=0;entryY=0;entryDx=0;entryDy=0;" edge="1" parent="1" source="C5pTyBcPjl7wKMJr9xtk-44" target="C5pTyBcPjl7wKMJr9xtk-55">
          <mxGeometry relative="1" as="geometry" />
        </mxCell>
        <mxCell id="C5pTyBcPjl7wKMJr9xtk-44" value="" style="ellipse;whiteSpace=wrap;html=1;aspect=fixed;fillColor=#331A00;" vertex="1" parent="1">
          <mxGeometry x="370" y="809" width="20" height="20" as="geometry" />
        </mxCell>
        <mxCell id="C5pTyBcPjl7wKMJr9xtk-45" value="300-349" style="text;html=1;align=center;verticalAlign=middle;whiteSpace=wrap;rounded=0;" vertex="1" parent="1">
          <mxGeometry x="390" y="803" width="60" height="30" as="geometry" />
        </mxCell>
        <mxCell id="C5pTyBcPjl7wKMJr9xtk-47" value="" style="ellipse;whiteSpace=wrap;html=1;aspect=fixed;fillColor=#660000;" vertex="1" parent="1">
          <mxGeometry x="200" y="809" width="20" height="20" as="geometry" />
        </mxCell>
        <mxCell id="C5pTyBcPjl7wKMJr9xtk-48" value="100-149" style="text;html=1;align=center;verticalAlign=middle;whiteSpace=wrap;rounded=0;" vertex="1" parent="1">
          <mxGeometry x="120" y="803" width="60" height="30" as="geometry" />
        </mxCell>
        <mxCell id="C5pTyBcPjl7wKMJr9xtk-49" value="" style="ellipse;whiteSpace=wrap;html=1;aspect=fixed;fillColor=#FF0000;" vertex="1" parent="1">
          <mxGeometry x="320" y="869" width="20" height="20" as="geometry" />
        </mxCell>
        <mxCell id="C5pTyBcPjl7wKMJr9xtk-50" value="200-299" style="text;html=1;align=center;verticalAlign=middle;whiteSpace=wrap;rounded=0;" vertex="1" parent="1">
          <mxGeometry x="250" y="873" width="60" height="30" as="geometry" />
        </mxCell>
        <mxCell id="C5pTyBcPjl7wKMJr9xtk-51" value="场景2：插入尾部段(序列号320-399)" style="text;html=1;align=center;verticalAlign=middle;whiteSpace=wrap;rounded=0;fontSize=16;fontStyle=1" vertex="1" parent="1">
          <mxGeometry x="120" y="694" width="140" height="39" as="geometry" />
        </mxCell>
        <mxCell id="C5pTyBcPjl7wKMJr9xtk-54" value="新段320-399是尾部段，只需要检查与&lt;div&gt;300-399段可能的向后重叠，&lt;/div&gt;&lt;div&gt;320-349之间是重叠的部分&lt;/div&gt;" style="text;html=1;align=center;verticalAlign=middle;whiteSpace=wrap;rounded=0;fontSize=14;" vertex="1" parent="1">
          <mxGeometry x="160" y="920" width="242" height="58" as="geometry" />
        </mxCell>
        <mxCell id="C5pTyBcPjl7wKMJr9xtk-55" value="" style="ellipse;whiteSpace=wrap;html=1;aspect=fixed;fillColor=#FF0000;" vertex="1" parent="1">
          <mxGeometry x="424" y="869" width="20" height="20" as="geometry" />
        </mxCell>
        <mxCell id="C5pTyBcPjl7wKMJr9xtk-57" value="新插入的段320-399" style="text;html=1;align=center;verticalAlign=middle;whiteSpace=wrap;rounded=0;fillColor=#1ba1e2;fontColor=#ffffff;strokeColor=#006EAF;fontStyle=1" vertex="1" parent="1">
          <mxGeometry x="460" y="858" width="70" height="30" as="geometry" />
        </mxCell>
        <mxCell id="C5pTyBcPjl7wKMJr9xtk-58" style="rounded=0;orthogonalLoop=1;jettySize=auto;html=1;exitX=0;exitY=0.5;exitDx=0;exitDy=0;entryX=1;entryY=0.5;entryDx=0;entryDy=0;" edge="1" parent="1" source="C5pTyBcPjl7wKMJr9xtk-60" target="C5pTyBcPjl7wKMJr9xtk-66">
          <mxGeometry relative="1" as="geometry" />
        </mxCell>
        <mxCell id="C5pTyBcPjl7wKMJr9xtk-59" style="rounded=0;orthogonalLoop=1;jettySize=auto;html=1;exitX=1;exitY=0.5;exitDx=0;exitDy=0;entryX=0;entryY=0.5;entryDx=0;entryDy=0;" edge="1" parent="1" source="C5pTyBcPjl7wKMJr9xtk-60" target="C5pTyBcPjl7wKMJr9xtk-64">
          <mxGeometry relative="1" as="geometry" />
        </mxCell>
        <mxCell id="C5pTyBcPjl7wKMJr9xtk-60" value="" style="ellipse;whiteSpace=wrap;html=1;aspect=fixed;fillColor=#331A00;" vertex="1" parent="1">
          <mxGeometry x="292" y="1122" width="20" height="20" as="geometry" />
        </mxCell>
        <mxCell id="C5pTyBcPjl7wKMJr9xtk-61" value="150-199" style="text;html=1;align=center;verticalAlign=middle;whiteSpace=wrap;rounded=0;" vertex="1" parent="1">
          <mxGeometry x="312" y="1102" width="60" height="30" as="geometry" />
        </mxCell>
        <mxCell id="C5pTyBcPjl7wKMJr9xtk-62" style="rounded=0;orthogonalLoop=1;jettySize=auto;html=1;exitX=0;exitY=1;exitDx=0;exitDy=0;entryX=1;entryY=0;entryDx=0;entryDy=0;" edge="1" parent="1" source="C5pTyBcPjl7wKMJr9xtk-64" target="C5pTyBcPjl7wKMJr9xtk-68">
          <mxGeometry relative="1" as="geometry" />
        </mxCell>
        <mxCell id="C5pTyBcPjl7wKMJr9xtk-75" style="rounded=0;orthogonalLoop=1;jettySize=auto;html=1;exitX=0.5;exitY=1;exitDx=0;exitDy=0;entryX=0;entryY=0;entryDx=0;entryDy=0;" edge="1" parent="1" source="C5pTyBcPjl7wKMJr9xtk-64" target="C5pTyBcPjl7wKMJr9xtk-74">
          <mxGeometry relative="1" as="geometry" />
        </mxCell>
        <mxCell id="C5pTyBcPjl7wKMJr9xtk-64" value="" style="ellipse;whiteSpace=wrap;html=1;aspect=fixed;fillColor=#331A00;" vertex="1" parent="1">
          <mxGeometry x="372" y="1188" width="20" height="20" as="geometry" />
        </mxCell>
        <mxCell id="C5pTyBcPjl7wKMJr9xtk-65" value="300-349" style="text;html=1;align=center;verticalAlign=middle;whiteSpace=wrap;rounded=0;" vertex="1" parent="1">
          <mxGeometry x="450" y="1250" width="60" height="30" as="geometry" />
        </mxCell>
        <mxCell id="C5pTyBcPjl7wKMJr9xtk-66" value="" style="ellipse;whiteSpace=wrap;html=1;aspect=fixed;fillColor=#FF0000;" vertex="1" parent="1">
          <mxGeometry x="202" y="1188" width="20" height="20" as="geometry" />
        </mxCell>
        <mxCell id="C5pTyBcPjl7wKMJr9xtk-67" value="100-149" style="text;html=1;align=center;verticalAlign=middle;whiteSpace=wrap;rounded=0;" vertex="1" parent="1">
          <mxGeometry x="122" y="1182" width="60" height="30" as="geometry" />
        </mxCell>
        <mxCell id="C5pTyBcPjl7wKMJr9xtk-68" value="" style="ellipse;whiteSpace=wrap;html=1;aspect=fixed;fillColor=#FF0000;" vertex="1" parent="1">
          <mxGeometry x="322" y="1248" width="20" height="20" as="geometry" />
        </mxCell>
        <mxCell id="C5pTyBcPjl7wKMJr9xtk-69" value="200-299" style="text;html=1;align=center;verticalAlign=middle;whiteSpace=wrap;rounded=0;" vertex="1" parent="1">
          <mxGeometry x="400" y="1180" width="60" height="30" as="geometry" />
        </mxCell>
        <mxCell id="C5pTyBcPjl7wKMJr9xtk-70" value="场景3：插入中间段(序列号180-250)" style="text;html=1;align=center;verticalAlign=middle;whiteSpace=wrap;rounded=0;fontSize=16;fontStyle=1" vertex="1" parent="1">
          <mxGeometry x="122" y="1073" width="140" height="39" as="geometry" />
        </mxCell>
        <mxCell id="C5pTyBcPjl7wKMJr9xtk-71" value="新段180-250是中间段，&lt;br&gt;需要检查与150-199段的向后重叠&lt;br&gt;&lt;div&gt;同时检查与200-299段的向前重叠&lt;/div&gt;&lt;div&gt;重叠部分180-199，200-250&lt;/div&gt;" style="text;html=1;align=center;verticalAlign=middle;whiteSpace=wrap;rounded=0;fontSize=14;" vertex="1" parent="1">
          <mxGeometry x="150" y="1310" width="242" height="58" as="geometry" />
        </mxCell>
        <mxCell id="C5pTyBcPjl7wKMJr9xtk-74" value="" style="ellipse;whiteSpace=wrap;html=1;aspect=fixed;fillColor=#FF0000;" vertex="1" parent="1">
          <mxGeometry x="420" y="1250" width="20" height="20" as="geometry" />
        </mxCell>
        <mxCell id="C5pTyBcPjl7wKMJr9xtk-76" value="新插入的段180-250" style="text;html=1;align=center;verticalAlign=middle;whiteSpace=wrap;rounded=0;fillColor=#1ba1e2;fontColor=#ffffff;strokeColor=#006EAF;" vertex="1" parent="1">
          <mxGeometry x="226" y="1250" width="77" height="30" as="geometry" />
        </mxCell>
        <mxCell id="C5pTyBcPjl7wKMJr9xtk-78" value="" style="shape=singleArrow;whiteSpace=wrap;html=1;" vertex="1" parent="1">
          <mxGeometry x="163" y="1250" width="50" height="30" as="geometry" />
        </mxCell>
        <mxCell id="C5pTyBcPjl7wKMJr9xtk-79" value="" style="shape=singleArrow;whiteSpace=wrap;html=1;" vertex="1" parent="1">
          <mxGeometry x="10" y="510" width="50" height="30" as="geometry" />
        </mxCell>
        <mxCell id="C5pTyBcPjl7wKMJr9xtk-80" value="" style="shape=singleArrow;direction=north;whiteSpace=wrap;html=1;" vertex="1" parent="1">
          <mxGeometry x="450" y="910" width="30" height="70" as="geometry" />
        </mxCell>
      </root>
    </mxGraphModel>
  </diagram>
</mxfile>
